<svg width="893" height="636" viewBox="0 0 893 636" fill="none" xmlns="http://www.w3.org/2000/svg">
<rect width="893" height="636" fill="#121212"/>
<path d="M82.6843 568.838C128.166 568.838 165.036 566.224 165.036 562.998C165.036 559.773 128.166 557.158 82.6843 557.158C37.2029 557.158 0.332855 559.773 0.332855 562.998C0.332855 566.224 37.2029 568.838 82.6843 568.838Z" fill="#D0CDE1"/>
<path d="M332.646 636C450.897 636 546.76 631.424 546.76 625.78C546.76 620.135 450.897 615.56 332.646 615.56C214.394 615.56 118.532 620.135 118.532 625.78C118.532 631.424 214.394 636 332.646 636Z" fill="#D0CDE1"/>
<path d="M444.062 212.591L447.938 205.777L428.561 201.884L426.623 211.617L429.53 219.404L444.062 212.591Z" fill="#3700B3"/>
<path opacity="0.2" d="M444.062 212.591L447.938 205.777L428.561 201.884L426.623 211.617L429.53 219.404L444.062 212.591Z" fill="black"/>
<path d="M432.921 208.21C446.833 208.21 458.111 196.88 458.111 182.903C458.111 168.926 446.833 157.596 432.921 157.596C419.009 157.596 407.731 168.926 407.731 182.903C407.731 196.88 419.009 208.21 432.921 208.21Z" fill="#FFB8B8"/>
<path d="M411.606 182.903L391.261 216.971L421.295 234.491L436.796 198.477L411.606 182.903Z" fill="#FFB8B8"/>
<path d="M409.669 222.81L383.51 212.104C383.51 212.104 343.787 218.917 339.912 231.571C336.037 244.224 336.037 346.427 336.037 346.427C336.037 346.427 326.348 371.734 339.912 372.707C339.912 372.707 336.037 378.547 339.912 379.521C343.787 380.494 383.51 379.521 399.011 384.388C414.513 389.254 445.516 393.148 445.516 388.281V379.521C445.516 379.521 452.298 372.707 448.422 361.027C444.547 349.347 439.703 324.039 439.703 324.039C439.703 324.039 468.768 259.798 465.861 252.011C462.955 244.224 427.469 220.146 427.469 220.146L409.669 222.81Z" fill="#3700B3"/>
<path d="M349.6 346.427L350.569 354.214L364.133 337.667H359.289L349.6 346.427Z" fill="#FFB8B8"/>
<path d="M409.669 222.81L381.572 215.997C381.572 215.997 375.759 211.13 375.759 205.29C375.759 199.45 384.479 190.69 390.292 184.85C390.798 184.328 391.404 183.915 392.073 183.636C392.743 183.357 393.462 183.216 394.186 183.224C399.941 183.175 406.917 190.758 406.917 190.758L399.176 203.733L398.827 204.307L409.669 222.81Z" fill="#3700B3"/>
<path d="M431.325 211.187L447.938 205.777C447.938 205.777 453.266 226.704 447.453 227.677C441.64 228.651 409.669 225.731 409.669 225.731L431.325 211.187Z" fill="#3700B3"/>
<path d="M341.85 374.654L329.255 446.682C329.255 446.682 324.411 455.443 326.348 459.336C328.286 463.229 329.255 463.229 326.348 465.176C323.442 467.123 319.566 465.176 320.535 470.043C321.116 472.928 321.44 475.86 321.504 478.803L294.376 572.245C294.376 572.245 276.937 580.032 289.532 584.899C302.127 589.766 314.722 593.659 317.629 588.792C320.535 583.925 317.629 578.085 317.629 578.085L362.195 471.016C362.195 471.016 368.977 461.283 368.977 455.443C368.977 449.602 391.261 407.748 391.261 407.748C391.261 407.748 392.229 449.602 393.198 452.522C394.167 455.443 391.261 461.283 391.261 465.176C391.261 469.069 389.323 469.069 391.261 471.016C393.198 472.963 393.198 495.35 393.198 495.35C393.198 495.35 381.572 581.979 388.354 582.952C395.136 583.925 414.513 581.979 414.513 578.085C414.513 574.192 411.606 573.219 411.606 573.219L424.201 499.244C424.201 499.244 423.232 494.377 425.17 490.483C427.108 486.59 427.108 486.59 427.108 484.643C427.108 482.696 426.139 481.723 427.108 480.75C427.741 479.909 428.081 478.883 428.077 477.83C428.077 477.83 426.139 471.99 427.108 471.016C428.077 470.043 449.391 397.041 442.609 388.281C435.827 379.521 341.85 374.654 341.85 374.654Z" fill="#2F2E41"/>
<path d="M389.323 580.032L382.541 595.606C382.541 595.606 367.04 613.126 378.666 617.02C390.292 620.913 394.167 619.94 394.167 619.94C394.167 619.94 399.011 620.913 399.011 622.86C399.011 624.806 437.765 639.407 440.671 626.753C443.578 614.1 410.637 590.739 410.637 590.739V579.059L389.323 580.032Z" fill="#2F2E41"/>
<path d="M314.592 587.241L316.059 604.176C316.059 604.176 325.167 625.757 312.912 625.71C300.658 625.663 297.296 623.495 297.296 623.495C297.296 623.495 292.396 622.86 291.776 624.705C291.156 626.549 249.79 627.928 251.065 615.006C252.34 602.083 290.988 590.536 290.988 590.536L294.707 579.469L314.592 587.241Z" fill="#2F2E41"/>
<path d="M408.386 189.831C409.942 189.726 410.979 188.022 411.41 186.401C411.841 184.78 411.95 183.003 412.829 181.61C415.238 177.793 421.5 179.335 424.044 175.621C425.608 173.337 425.28 169.618 427.538 168.165C428.964 167.248 430.782 167.72 432.353 168.297C438.442 170.549 444.064 173.913 448.935 178.219L450.958 176.564L453.485 181.639C454.465 180.453 456.355 181.373 457.177 182.692C457.999 184.012 458.398 185.698 459.57 186.659C461.439 188.191 464.358 186.894 465.489 184.672C466.621 182.451 466.434 179.736 466.042 177.235C465.065 170.97 462.982 164.931 459.891 159.401L462.203 158.007L459.214 157.579L460.358 154.971L457.227 154.934L458.464 152.706C454.255 154.157 449.905 151.499 445.885 149.517C439.161 146.203 431.596 144.612 424.295 145.844C420.554 146.454 416.981 147.84 413.802 149.914C410.624 151.989 407.911 154.705 405.835 157.891C402.652 162.919 400.814 170.221 402.405 176.242C403.851 181.716 410.167 182.568 408.386 189.831Z" fill="#2F2E41"/>
<path d="M345.725 227.677C345.725 227.677 339.912 226.704 336.037 234.491C332.161 242.278 303.096 304.572 317.629 324.039C332.161 343.507 345.725 349.347 345.725 349.347L348.632 350.32L363.164 334.746L358.32 327.933C358.32 327.933 358.32 321.119 354.445 320.146C350.569 319.173 350.569 322.093 349.6 318.199C348.632 314.306 353.476 317.226 348.632 313.333C343.787 309.439 347.663 307.492 347.663 307.492L345.725 227.677Z" fill="#3700B3"/>
<path d="M448.422 357.621L447.453 365.408L433.89 348.86H438.734L448.422 357.621Z" fill="#FFB8B8"/>
<path d="M446.969 248.604C446.969 248.604 460.533 241.791 464.408 249.578C468.283 257.365 494.927 315.766 480.394 335.233C465.861 354.7 452.298 360.54 452.298 360.54L449.391 361.514L434.858 345.94L439.703 339.126C439.703 339.126 439.703 332.313 443.578 331.34C447.453 330.366 447.453 333.286 448.422 329.393C449.391 325.499 444.547 328.42 449.391 324.526C454.235 320.633 450.36 318.686 450.36 318.686L446.969 248.604Z" fill="#3700B3"/>
<path opacity="0.2" d="M354.929 266.125L344.272 308.953L356.867 324.527L351.054 305.059L354.929 266.125Z" fill="black"/>
<path opacity="0.2" d="M406.917 190.758L399.176 203.733C394.312 202.039 393.906 190.699 394.186 183.224C399.941 183.175 406.917 190.758 406.917 190.758Z" fill="black"/>
<path d="M242.315 599.272C242.483 616.592 232.293 622.739 219.652 622.863C219.358 622.866 219.066 622.865 218.775 622.861C218.189 622.854 217.609 622.833 217.035 622.798C205.618 622.098 196.691 615.828 196.534 599.72C196.373 583.051 217.374 561.807 218.949 560.236L218.952 560.234C219.012 560.174 219.043 560.144 219.043 560.144C219.043 560.144 242.147 581.953 242.315 599.272Z" fill="#D0CDE1"/>
<path d="M209.385 515.726C209.503 527.952 202.31 532.291 193.387 532.378C193.18 532.38 192.973 532.38 192.768 532.377C192.354 532.372 191.945 532.357 191.54 532.332C183.481 531.838 177.179 527.412 177.069 516.042C176.955 504.276 191.779 489.28 192.891 488.171L192.893 488.17C192.935 488.128 192.957 488.106 192.957 488.106C192.957 488.106 209.266 503.501 209.385 515.726Z" fill="#D0CDE1"/>
<path d="M193.133 534.781C225.237 534.781 251.263 532.935 251.263 530.658C251.263 528.382 225.237 526.536 193.133 526.536C161.028 526.536 135.002 528.382 135.002 530.658C135.002 532.935 161.028 534.781 193.133 534.781Z" fill="#D0CDE1"/>
<path d="M893 272.355H508.61V468.973H893V272.355Z" fill="#3F3D56"/>
<path d="M617.273 338.561H578.345V341.82H617.273V338.561Z" fill="#D0CDE1"/>
<path d="M669.176 338.561H630.249V341.82H669.176V338.561Z" fill="#D0CDE1"/>
<path d="M744.599 368.708H705.671V371.967H744.599V368.708Z" fill="#D0CDE1"/>
<path d="M797.314 368.708H758.386V371.967H797.314V368.708Z" fill="#D0CDE1"/>
<path d="M797.314 338.561H682.963V341.82H797.314V338.561Z" fill="#D0CDE1"/>
<path d="M692.695 368.708H578.345V371.967H692.695V368.708Z" fill="#D0CDE1"/>
<path d="M692.695 398.855H578.345V402.114H692.695V398.855Z" fill="#D0CDE1"/>
<path d="M797.314 398.855H717.836V402.114H797.314V398.855Z" fill="#D0CDE1"/>
<path d="M567.404 352.32L553.708 338.561L567.404 324.802L570.143 327.555L559.188 338.561L570.143 349.567L567.404 352.32Z" fill="#D0CDE1"/>
<path d="M834.207 415.873L831.467 413.12L842.423 402.113L831.467 391.107L834.207 388.354L847.902 402.113L834.207 415.873Z" fill="#D0CDE1"/>
<path d="M819.789 387.698L811.679 414.585L815.387 415.714L823.498 388.828L819.789 387.698Z" fill="#D0CDE1"/>
<path d="M89.9192 536.982L161.679 429.771L90.066 548.516L90.2157 560.58C84.9769 560.62 79.7891 560.533 74.6521 560.317L78.2112 405.243L78.1137 404.046L78.245 403.815L78.5857 389.161L0 274.532L78.493 378.194L78.7715 381.291L81.4598 264.126L13.5829 145.282L81.6531 243.544L80.9426 0.807918L80.9441 3.05176e-05L80.9672 0.794588L85.473 192.103L147.335 114.393L85.6755 208.584L87.0257 313.385L143.951 211.103L87.2349 328.793L87.9865 387.068L170.771 244.59L88.2382 407.397L89.9192 536.982Z" fill="#D0CDE1"/>
</svg>
